<svg width="22" height="23" viewBox="0 0 22 23" fill="none" xmlns="http://www.w3.org/2000/svg">
<path fill-rule="evenodd" clip-rule="evenodd" d="M6.465 0.29206C7.638 0.238072 8.012 0.226074 11 0.226074C13.988 0.226074 14.362 0.239071 15.534 0.29206C16.706 0.345048 17.506 0.532008 18.206 0.802949C18.939 1.07989 19.604 1.5128 20.154 2.07267C20.714 2.62156 21.146 3.28541 21.422 4.01925C21.694 4.7191 21.88 5.51893 21.934 6.68868C21.988 7.86342 22 8.23734 22 11.2237C22 14.211 21.987 14.585 21.934 15.7577C21.881 16.9275 21.694 17.7273 21.422 18.4271C21.146 19.1611 20.7133 19.826 20.154 20.3757C19.604 20.9356 18.939 21.3675 18.206 21.6434C17.506 21.9154 16.706 22.1013 15.536 22.1553C14.362 22.2093 13.988 22.2213 11 22.2213C8.012 22.2213 7.638 22.2083 6.465 22.1553C5.295 22.1023 4.495 21.9154 3.795 21.6434C3.06092 21.3675 2.39582 20.9348 1.846 20.3757C1.28638 19.8265 0.853315 19.1619 0.577 18.4281C0.306 17.7283 0.12 16.9285 0.066 15.7587C0.012 14.584 0 14.21 0 11.2237C0 8.23634 0.013 7.86242 0.066 6.69067C0.119 5.51893 0.306 4.7191 0.577 4.01925C0.853723 3.28549 1.28712 2.62087 1.847 2.07167C2.39604 1.5123 3.06047 1.07933 3.794 0.802949C4.494 0.532008 5.294 0.346048 6.464 0.29206H6.465ZM15.445 2.27163C14.285 2.21864 13.937 2.20765 11 2.20765C8.063 2.20765 7.715 2.21864 6.555 2.27163C5.482 2.32062 4.9 2.49958 4.512 2.65055C3.999 2.85051 3.632 3.08746 3.247 3.47237C2.88205 3.82735 2.60118 4.25948 2.425 4.7371C2.274 5.12501 2.095 5.70689 2.046 6.77966C1.993 7.9394 1.982 8.28733 1.982 11.2237C1.982 14.1601 1.993 14.508 2.046 15.6677C2.095 16.7405 2.274 17.3224 2.425 17.7103C2.601 18.1872 2.882 18.6201 3.247 18.975C3.602 19.3399 4.035 19.6209 4.512 19.7968C4.9 19.9478 5.482 20.1268 6.555 20.1758C7.715 20.2287 8.062 20.2397 11 20.2397C13.938 20.2397 14.285 20.2287 15.445 20.1758C16.518 20.1268 17.1 19.9478 17.488 19.7968C18.001 19.5969 18.368 19.3599 18.753 18.975C19.118 18.6201 19.399 18.1872 19.575 17.7103C19.726 17.3224 19.905 16.7405 19.954 15.6677C20.007 14.508 20.018 14.1601 20.018 11.2237C20.018 8.28733 20.007 7.9394 19.954 6.77966C19.905 5.70689 19.726 5.12501 19.575 4.7371C19.375 4.22421 19.138 3.85729 18.753 3.47237C18.3979 3.10752 17.9657 2.82672 17.488 2.65055C17.1 2.49958 16.518 2.32062 15.445 2.27163ZM9.595 14.614C10.3797 14.9405 11.2534 14.9846 12.0669 14.7387C12.8805 14.4927 13.5834 13.972 14.0556 13.2655C14.5278 12.559 14.7401 11.7105 14.656 10.8649C14.572 10.0193 14.197 9.2291 13.595 8.62926C13.2112 8.24581 12.7472 7.95221 12.2363 7.76959C11.7255 7.58696 11.1804 7.51986 10.6405 7.5731C10.1006 7.62634 9.57915 7.79861 9.1138 8.07751C8.64845 8.3564 8.25074 8.73498 7.9493 9.18599C7.64786 9.637 7.45019 10.1492 7.37052 10.6858C7.29084 11.2223 7.33115 11.7699 7.48854 12.289C7.64593 12.8081 7.91648 13.2859 8.28072 13.6879C8.64496 14.0899 9.09382 14.4062 9.595 14.614ZM7.002 7.22656C7.52702 6.70165 8.15032 6.28527 8.8363 6.00119C9.52228 5.71711 10.2575 5.57089 11 5.57089C11.7425 5.57089 12.4777 5.71711 13.1637 6.00118C13.8497 6.28526 14.473 6.70165 14.998 7.22656C15.523 7.75147 15.9395 8.37463 16.2236 9.06046C16.5078 9.74629 16.654 10.4814 16.654 11.2237C16.654 11.966 16.5078 12.7011 16.2236 13.3869C15.9395 14.0728 15.523 14.6959 14.998 15.2208C13.9377 16.2809 12.4995 16.8765 11 16.8765C9.50046 16.8765 8.06234 16.2809 7.002 15.2208C5.94166 14.1607 5.34597 12.7229 5.34597 11.2237C5.34597 9.72448 5.94166 8.28666 7.002 7.22656ZM17.908 6.41273C18.0381 6.29003 18.1423 6.14247 18.2143 5.9788C18.2863 5.81513 18.3248 5.63867 18.3274 5.45987C18.33 5.28107 18.2967 5.10357 18.2295 4.93786C18.1622 4.77216 18.0624 4.62163 17.936 4.49519C17.8095 4.36874 17.6589 4.26896 17.4932 4.20173C17.3275 4.13451 17.1499 4.10121 16.9711 4.10382C16.7922 4.10642 16.6157 4.14488 16.452 4.21691C16.2883 4.28893 16.1407 4.39307 16.018 4.52314C15.7793 4.77612 15.6486 5.11214 15.6537 5.45987C15.6588 5.8076 15.7992 6.13967 16.0452 6.38558C16.2911 6.63149 16.6233 6.77189 16.9711 6.77696C17.3189 6.78202 17.655 6.65137 17.908 6.41273Z" fill="#F8F8F8"/>
</svg>
