<svg width="58" height="34" viewBox="0 0 58 34" fill="none" xmlns="http://www.w3.org/2000/svg">
<path fill-rule="evenodd" clip-rule="evenodd" d="M25.1952 0.105006C24.6933 0.329217 24.2895 0.916278 23.7265 2.24003C23.2618 3.33268 23.2146 3.39663 22.6043 3.75959C22.043 4.09357 21.9172 4.2418 21.545 5.00842C21.2739 5.56684 20.8159 6.21738 20.266 6.82525C19.4098 7.77166 19.26 8.07033 19.5787 8.19483C19.8753 8.31068 20.5328 7.78183 21.4297 6.7059C21.9089 6.13087 22.4917 5.56146 22.7248 5.44047C23.9629 4.79753 26.6646 4.38184 29.6096 4.38114L31.713 4.38056L32.5902 4.79309C33.0726 5.01999 33.5582 5.28921 33.6692 5.39149C33.8317 5.54124 34.1011 5.57093 35.0528 5.5444C36.8946 5.49273 37.0179 5.5119 37.6553 5.94851C37.9756 6.16793 38.4192 6.40839 38.641 6.48297C38.8629 6.55744 39.1873 6.77276 39.3621 6.9612C39.5369 7.14976 39.8608 7.36076 40.0819 7.43008C40.303 7.4994 41.4141 8.02042 42.5511 8.58784C43.6881 9.15538 44.8509 9.7283 45.1352 9.86121C45.4194 9.99413 45.8977 10.2845 46.198 10.5064C46.4982 10.7282 47.1701 11.0847 47.691 11.2982C48.8689 11.7814 49.4002 12.0597 51.2795 13.1787C53.9671 14.7787 53.9586 14.7678 53.459 15.9704C53.0103 17.0509 53.0067 17.1855 53.3954 18.4204C53.5898 19.0378 53.7488 19.7285 53.7488 19.9551C53.7488 20.3036 53.6951 20.3899 53.4012 20.5138C53.1658 20.613 53.0717 20.7212 53.1094 20.8494C53.3036 21.5094 53.5249 22.7463 53.4661 22.843C53.4276 22.9065 53.2133 22.9932 52.99 23.0359C52.4977 23.1299 52.3365 23.4675 52.4465 24.1735C52.6121 25.2371 52.9319 25.6698 53.7067 25.8798C54.2648 26.031 54.4697 26.2425 54.418 26.614C54.3809 26.8803 54.3642 26.8831 53.0023 26.8521C51.6278 26.8209 49.7341 26.6803 44.7332 26.2385C41.5309 25.9555 37.7843 25.8267 37.1533 25.9777L36.6939 26.0877L37.3255 26.1637C37.6729 26.2055 39.4301 26.3198 41.2304 26.4176C43.0306 26.5155 47.2154 26.7524 50.5299 26.9441C53.8444 27.1357 56.673 27.2926 56.8157 27.2926C57.0581 27.2926 57.0705 27.2566 57.0058 26.7373C56.9432 26.2341 56.7803 25.9637 56.4779 25.8611C56.4177 25.8407 56.1732 24.984 55.9345 23.9573C55.6243 22.6232 55.4555 22.096 55.3425 22.1095C55.2556 22.1197 55.0219 22.1646 54.8232 22.2093C54.4746 22.2875 54.4596 22.2746 54.3905 21.8398C54.3511 21.592 54.2697 20.7843 54.2095 20.0449C54.1492 19.3055 54.0662 18.3567 54.0249 17.9364C53.9577 17.2519 53.9824 17.1069 54.262 16.545C54.5575 15.9516 54.5699 15.8616 54.4931 14.8737L54.4119 13.8296L53.8103 13.4378C53.4794 13.2224 51.8702 12.3501 50.2343 11.4994C46.6125 9.61619 46.6282 9.6266 46.6282 9.10979C46.6282 8.80293 46.5344 8.6235 46.2196 8.32868C45.6121 7.75974 45.3591 7.68247 44.5206 7.81C44.121 7.87079 43.5961 7.88283 43.3545 7.83665C42.8528 7.74091 40.659 6.60794 39.5092 5.8509C39.0836 5.57058 38.2335 5.06593 37.6202 4.72938C36.1707 3.93401 35.8972 3.687 35.4367 2.75731C34.7823 1.43577 34.6396 1.37218 31.9973 1.22419C29.7146 1.0963 29.2153 1.01307 27.506 0.474871C25.843 -0.048833 25.6193 -0.0846031 25.1952 0.105006ZM27.3293 1.01997C27.6888 1.1565 28.1189 1.43145 28.3184 1.65239L28.6714 2.04318L31.247 2.0136C34.2505 1.97923 34.3758 2.01267 34.8555 2.97614C35.2124 3.6932 35.7579 4.3352 36.2138 4.57519C36.5161 4.73429 36.5357 4.7724 36.3659 4.86908C36.0746 5.03507 35.1115 4.79473 33.5034 4.15471C30.8872 3.1135 30.5956 3.03436 29.4585 3.05552C28.89 3.06604 27.7013 3.18773 26.817 3.32579C25.9326 3.46396 24.8861 3.60716 24.4913 3.6441C23.861 3.70302 23.7735 3.68642 23.7735 3.50815C23.7735 3.22397 24.5341 1.46745 24.7779 1.18889C25.2961 0.596562 26.0778 0.544776 27.3293 1.01997ZM21.6786 2.8548C20.5158 3.51294 19.7915 3.96533 16.251 6.24508C15.4068 6.78866 12.5119 8.35147 9.58979 9.84122C3.33702 13.029 2.40135 13.6128 1.69653 14.7666C1.45868 15.1559 1.43502 15.3382 1.42894 16.8302C1.424 18.0353 1.35624 18.7904 1.17225 19.6942C0.906723 20.998 0.604214 25.9189 0.743295 26.6732C0.782917 26.888 0.973679 27.2475 1.16743 27.472C1.48475 27.8399 1.50634 27.9128 1.38621 28.2079C1.24311 28.5598 1.32511 29.1207 1.66104 30.0872C1.84434 30.6146 1.83171 30.765 1.61556 30.629C1.54815 30.5867 1.49302 30.4037 1.49302 30.2224C1.49302 29.8466 1.34223 29.6845 0.883065 29.5672C0.634304 29.5036 0.49798 29.5458 0.280803 29.7535C0.126333 29.9012 0 30.1145 0 30.2275C0 30.5299 0.557012 30.8814 1.23496 31.0068C1.83389 31.1176 2.2795 31.1133 4.97153 30.9702C6.07292 30.9117 7.06371 30.9528 8.93378 31.1347C10.3053 31.2682 12.5385 31.4317 13.8966 31.4984C15.2547 31.5649 17.0377 31.7188 17.8588 31.8404C20.122 32.1756 21.4669 32.2147 24.9399 32.047C27.278 31.9341 29.0932 31.9214 31.8194 31.9992C35.6925 32.1097 35.8484 32.0978 36.9506 31.6069C37.5309 31.3485 37.566 31.3461 37.9593 31.5368C38.3187 31.7114 38.412 31.7153 38.751 31.5712C39.0977 31.4238 39.1564 31.4287 39.3502 31.6211C39.5392 31.8089 39.6853 31.8246 40.5634 31.7529C41.3899 31.6852 41.6116 31.6235 41.8514 31.3941L42.1411 31.1172L42.3402 31.4702C42.5138 31.7781 42.5914 31.8172 42.9471 31.7761C44.787 31.5636 48.9413 31.1507 49.241 31.1505C49.6771 31.1503 49.7213 31.3072 49.354 31.5523C48.0188 32.4427 43.9378 32.8338 32.7926 33.1393C30.3942 33.2051 28.3945 33.2973 28.3488 33.3443C28.3031 33.3913 29.1801 33.4444 30.2976 33.4623C31.4152 33.4803 34.4486 33.5503 37.0384 33.6181C39.6282 33.6859 44.693 33.7773 48.2935 33.8213C51.894 33.8652 54.8999 33.94 54.9733 33.9875C55.0467 34.0349 55.5118 33.9432 56.0069 33.7836C56.502 33.6239 57.0526 33.464 57.2304 33.4282C58.1442 33.244 58.2833 30.5344 57.4365 29.4095C57.2275 29.1317 57.2227 29.1311 56.6729 29.3218C56.3686 29.4273 56.103 29.5137 56.0827 29.5137C56.0624 29.5137 56.0457 29.2244 56.0457 28.8707V28.2278H55.6406C55.418 28.2278 54.3713 28.4346 53.315 28.6873C50.8803 29.2698 49.7869 29.3446 47.145 29.1099C46.008 29.0088 43.7082 28.8979 42.0343 28.8633C40.2957 28.8274 38.8025 28.7436 38.5515 28.6679C38.2209 28.5681 37.9494 28.5696 37.4528 28.674C36.8946 28.7914 36.709 28.7834 36.2454 28.6227C35.7158 28.4389 35.6868 28.4409 35.3669 28.6816C35.0577 28.9142 35.008 28.9194 34.6017 28.7593C33.997 28.5213 32.557 28.3 31.8703 28.3395C31.1553 28.3807 30.0039 28.3821 29.4121 28.3427C29.0992 28.3219 28.8565 28.3905 28.6092 28.5697C28.0619 28.9665 27.498 29.0172 27.166 28.6997L26.8925 28.4381L25.4944 29.637L24.0962 30.8358L22.1498 30.7152C21.0792 30.6489 20.1774 30.5682 20.1457 30.5359C20.114 30.5037 20.1469 30.2394 20.2188 29.9484C20.3387 29.4639 20.3887 29.4095 20.816 29.2992C21.2362 29.1906 21.32 29.2079 21.663 29.4742C22.1722 29.8695 23.3839 30.2478 23.8556 30.1588C24.4422 30.048 24.3808 29.9188 23.7627 29.9634C22.8714 30.0274 23.0403 29.6926 24.0722 29.3501C24.8354 29.0969 25.0694 28.9181 24.973 28.6621C24.8609 28.3648 24.5083 28.3169 23.4381 28.4535C22.2631 28.6035 21.9861 28.5424 21.8346 28.1001C21.7268 27.7853 21.6753 27.7602 21.138 27.7602C20.4852 27.7602 20.4987 27.7899 20.679 26.7589C20.8948 25.5244 20.6483 25.6384 22.95 25.7088C28.0355 25.8641 32.0962 25.8986 31.9851 25.7852C31.6943 25.4886 30.4648 25.3053 28.774 25.3066C27.2333 25.3077 21.4963 25.0004 21.18 24.8997C21.0499 24.8583 21.6519 20.8933 21.8158 20.7123C22.0134 20.4938 24.9045 20.3777 28.3674 20.4494C31.4369 20.5129 32.0861 20.4967 32.6511 20.343C33.0741 20.228 33.8111 20.1618 34.6712 20.1618C35.416 20.1618 36.8357 20.0828 37.8263 19.9862C40.4566 19.7298 46.2352 19.8352 48.1685 20.1749C49.4817 20.4058 50.8741 20.438 51.0665 20.2422C51.5451 19.7552 48.5225 19.4822 41.5749 19.385C38.2982 19.3391 35.9955 19.3631 34.5692 19.4576C32.6872 19.5825 21.9391 19.8242 21.8397 19.7439C21.8182 19.7266 21.8641 18.926 21.9416 17.9647L22.0822 16.2169L23.014 16.1423C23.5265 16.1012 25.7288 16.0727 27.908 16.0788C30.0872 16.085 32.7101 16.0264 33.7365 15.9488C35.142 15.8424 36.0495 15.8393 37.4117 15.9361C38.4066 16.0068 40.4092 16.0967 41.862 16.136C43.8643 16.19 44.6981 16.2587 45.3074 16.4199C46.3092 16.685 50.1259 16.8525 50.2566 16.6372C50.4069 16.3897 49.9671 16.2201 48.9598 16.1369C48.0195 16.0593 47.3475 15.8708 47.018 15.5925C46.9022 15.4948 46.9062 15.3759 47.038 14.9959C47.3966 13.9612 47.1508 13.407 46.2262 13.1659C45.3434 12.9358 41.3064 12.5422 40.2369 12.582C39.2925 12.6173 39.1389 12.6538 38.9077 12.8982L38.6463 13.1745L39.0822 13.0965C39.4479 13.031 39.5515 13.0603 39.725 13.2784C39.9275 13.5329 39.9419 13.5343 40.4111 13.3431C41.1763 13.0315 41.9801 13.1008 43.8144 13.6364C44.7929 13.9221 45.2761 14.3312 45.2266 14.8317C45.1859 15.2433 44.9162 15.3775 44.827 15.0306C44.7594 14.7672 44.6191 14.7111 44.5035 14.9014C44.3743 15.1142 43.8948 15.0229 43.5384 14.7176C43.1663 14.399 43.0346 14.42 42.6978 14.8518C42.2805 15.3869 41.6294 15.539 39.9191 15.501C39.115 15.4831 39.1285 15.414 39.9678 15.252C40.5962 15.1306 41.0007 14.8718 41.0007 14.591C41.0007 14.4012 41.0133 14.4006 39.5076 14.6544C38.3824 14.8441 38.3041 14.8747 38.3377 15.1133C38.3735 15.3681 38.3659 15.369 36.3278 15.3706C35.2027 15.3714 31.7292 15.4252 28.6092 15.49C25.489 15.5547 22.9183 15.5896 22.8965 15.5675C22.8748 15.5453 23.5929 15.2466 24.4924 14.9037C25.3919 14.561 26.1925 14.2296 26.2714 14.1675C26.3504 14.1053 26.415 13.9337 26.415 13.7862C26.415 13.5755 26.3028 13.4743 25.8919 13.3146C25.2308 13.0577 25.4043 12.9183 26.3885 12.9159C27.0916 12.9141 27.1068 12.9207 27.0392 13.1949C26.9792 13.4383 27.0197 13.4868 27.3425 13.5591C27.6516 13.6281 27.7488 13.5966 27.9142 13.3734C28.058 13.1794 28.2847 13.0805 28.7285 13.0183C30.8271 12.7239 31.5889 12.5966 31.6554 12.5288C31.8098 12.3717 31.4331 12.1048 30.9538 12.0317C30.6811 11.99 29.8197 12.0374 29.0395 12.137C28.0219 12.2669 26.939 12.3052 25.2091 12.2725C23.5793 12.2416 22.4249 12.2783 21.6488 12.3855C20.57 12.5347 14.5857 12.7437 14.5857 12.6324C14.5857 12.6041 15.568 11.9667 16.7685 11.2156C18.9082 9.87711 19.2318 9.64098 18.9266 9.64098C18.7076 9.64098 14.0855 11.2325 13.6711 11.4507C13.4793 11.5517 13.3223 11.7144 13.3223 11.8124C13.3223 12.2037 12.9724 12.6572 12.532 12.8365C12.2819 12.9383 11.5048 13.0764 10.8049 13.1432C10.105 13.2101 8.95951 13.3195 8.25939 13.3865C7.04557 13.5025 6.08108 13.7374 5.77202 13.9924C5.66211 14.0831 5.69519 14.1896 5.91638 14.4572C6.07418 14.6481 6.17226 14.8555 6.13436 14.918C5.99678 15.1445 6.20603 15.5763 6.51612 15.7054C6.69069 15.7781 7.23759 15.8892 7.73155 15.9522C8.22551 16.0152 8.67778 16.0969 8.73647 16.1339C9.36997 16.5324 7.0992 16.9337 4.57978 16.8684C2.54905 16.8158 2.18211 16.6773 2.18211 15.9631C2.18211 15.0017 3.56775 13.8984 6.90614 12.2019C11.3458 9.94585 17.727 6.29523 20.5388 4.40288C22.1992 3.28557 23.4323 2.15949 22.9956 2.15949C22.9468 2.15949 22.3541 2.47231 21.6786 2.8548ZM33.7383 12.4221C33.7032 12.5584 33.5606 12.6783 33.4053 12.7022C33.1347 12.7438 33.1346 12.7445 33.3757 12.8827C33.5327 12.9727 34.3932 13.0334 35.8242 13.0555C37.8797 13.0871 38.0417 13.0743 38.1912 12.8677C38.2796 12.7457 38.3292 12.6086 38.3015 12.563C38.2737 12.5174 37.6164 12.4448 36.8409 12.4015C36.0652 12.3584 35.0636 12.2918 34.615 12.2534C33.8611 12.1889 33.7949 12.2016 33.7383 12.4221ZM22.2802 13.1825C22.2806 13.304 21.1338 13.8467 20.8736 13.8481C20.763 13.8488 20.6726 13.7967 20.6726 13.7324C20.6726 13.5668 20.2277 13.5869 19.0538 13.8055L18.0337 13.9954L17.8117 13.7178L17.5897 13.4402L17.2586 13.7616C16.9326 14.0782 16.2828 14.2077 16.1466 13.9834C16.0288 13.7896 16.4051 13.4468 16.9562 13.2457C17.4283 13.0735 17.8815 13.0458 19.8971 13.0657C21.2077 13.0788 22.28 13.1313 22.2802 13.1825ZM29.8816 13.3484C29.9023 13.4586 30.0944 13.6688 30.3081 13.8154L30.6969 14.0821L29.9628 14.0603C29.467 14.0456 29.0578 14.1096 28.7018 14.2576C28.1756 14.4765 28.1746 14.4765 27.8156 14.2163C27.4741 13.9688 27.4416 13.9655 27.1653 14.1497C26.8578 14.3549 26.8323 14.4201 26.9441 14.7165C27.0368 14.9623 27.5042 14.9494 28.7119 14.6676C29.9447 14.3799 30.1674 14.3799 30.7218 14.6676C31.2962 14.9657 31.3704 14.962 31.8812 14.6092C32.1605 14.4163 32.4626 14.3169 32.7702 14.3169C33.2232 14.3169 34.1098 13.8422 34.1098 13.5996C34.1098 13.4545 34.0247 13.4734 33.6992 13.6904C33.3111 13.9493 32.2232 13.8436 31.1862 13.4464C30.2554 13.0897 29.8264 13.0576 29.8816 13.3484ZM24.4927 13.4402C24.5077 13.5045 24.3391 13.597 24.118 13.646C22.6103 13.9795 22.4537 14.0328 22.4176 14.225C22.3557 14.5553 22.8741 14.5915 23.8759 14.3272C24.8809 14.0621 25.5675 14.0003 25.2665 14.2022C24.8171 14.5036 21.7833 15.3144 21.581 15.1871C21.3048 15.0134 22.2902 13.7045 22.9066 13.4265C23.2989 13.2496 24.4503 13.2596 24.4927 13.4402ZM15.5912 13.6447C15.5652 13.7252 15.4289 13.808 15.2883 13.8291C15.1447 13.8505 14.9863 13.9915 14.9269 14.1506C14.8169 14.445 14.7285 14.4823 14.4228 14.3628C13.9426 14.1753 14.5429 13.4986 15.1895 13.4986C15.4973 13.4986 15.6235 13.5446 15.5912 13.6447ZM11.3743 13.9025C11.298 13.996 11.0111 14.2063 10.7369 14.37C10.4626 14.5336 10.1326 14.8041 10.0034 14.9713L9.76849 15.2752L9.37847 15.0299C9.05299 14.8251 8.80538 14.7845 7.88223 14.7845C6.72353 14.7845 6.56194 14.6988 7.07531 14.3565C7.33602 14.1826 7.45718 14.1745 8.01638 14.294C8.5534 14.4087 8.70075 14.4026 8.91896 14.2571C9.21722 14.0581 9.46552 14.0264 9.35963 14.2008C9.32024 14.2656 9.3787 14.354 9.48953 14.3972C9.61127 14.4448 9.71061 14.4156 9.74081 14.3233C9.87404 13.9166 10.2252 13.7324 10.8671 13.7324C11.4192 13.7324 11.4928 13.7571 11.3743 13.9025ZM13.3055 14.3159C13.2397 14.5082 13.0317 14.7975 12.8433 14.9588C12.2571 15.4608 12.155 15.3239 12.4766 14.4669C12.6455 14.0165 12.7026 13.9662 13.0449 13.9662C13.4173 13.9662 13.4227 13.9735 13.3055 14.3159ZM21.2507 14.2953C20.975 14.7844 20.9787 14.7832 20.2964 14.5684C19.4806 14.3114 19.5946 14.1493 20.6116 14.1199C21.2854 14.1005 21.3504 14.1184 21.2507 14.2953ZM18.7544 14.2738C18.7943 14.3145 18.7765 14.4436 18.7148 14.561C18.5937 14.7913 17.949 15.0165 17.4082 15.0176L17.0722 15.0183L17.3507 14.7133C17.5038 14.5454 17.7325 14.3647 17.8588 14.3115C18.1376 14.1942 18.6547 14.1724 18.7544 14.2738ZM36.7553 14.4261C36.5748 14.7697 36.5936 14.7845 37.2107 14.7845C37.8856 14.7845 38.0024 14.5339 37.4233 14.3284C36.9393 14.1566 36.8935 14.1633 36.7553 14.4261ZM41.661 14.6755C41.3854 14.8237 41.2304 14.9901 41.2304 15.138C41.2304 15.6 41.9348 15.2382 42.0894 14.6968C42.1788 14.3845 42.2008 14.3855 41.661 14.6755ZM11.4636 14.8722C11.4352 15.1244 11.3596 15.2016 11.1122 15.2306C10.8501 15.2613 10.8096 15.2318 10.8716 15.0552C11.0742 14.4783 11.5239 14.3394 11.4636 14.8722ZM20.8808 15.2813L20.8449 15.6612L18.5511 15.693C16.8834 15.7162 16.2918 15.6898 16.3837 15.5962C16.5654 15.4113 17.2998 15.2584 18.0311 15.2531C18.3785 15.2506 18.8695 15.1727 19.1222 15.0801C19.3748 14.9874 19.882 14.9093 20.2492 14.9065L20.9169 14.9014L20.8808 15.2813ZM14.7521 15.3575L14.9245 15.6967L14.1758 15.8295C13.4627 15.9558 12.6333 15.9024 12.6333 15.7301C12.6333 15.5106 12.9661 15.3686 13.4889 15.3652C13.8156 15.3631 14.1661 15.2866 14.2918 15.1899C14.5765 14.9707 14.5509 14.9614 14.7521 15.3575ZM44.3357 15.4302C44.5789 15.5833 44.1956 15.7161 43.5054 15.7179C42.8569 15.7197 42.636 15.6075 42.7898 15.3543C42.8747 15.2142 44.0871 15.2738 44.3357 15.4302ZM11.4633 16.1671C11.4832 16.371 11.4727 16.538 11.4403 16.538C11.4078 16.538 11.118 16.4805 10.7962 16.4102C10.312 16.3045 10.2342 16.254 10.3455 16.1175C10.4847 15.9468 11.1105 15.7213 11.3125 15.769C11.3757 15.784 11.4435 15.9631 11.4633 16.1671ZM21.4401 16.4503C21.4064 16.595 21.3149 17.4235 21.2368 18.2914C21.1589 19.1594 21.0635 19.9074 21.0251 19.9537C20.9425 20.0531 19.864 20.1771 15.6767 20.5685C13.9712 20.728 12.3229 20.8917 12.0138 20.9325L11.4517 21.0066L11.5304 20.4033C11.5736 20.0716 11.7389 19.2896 11.8979 18.6659C12.4311 16.5721 12.3296 16.6238 16.1286 16.5102C17.7751 16.4608 19.4064 16.3745 19.7538 16.3184C20.1012 16.2623 20.6365 16.2098 20.9434 16.2019C21.4667 16.1882 21.4976 16.2036 21.4401 16.4503ZM11.1895 17.0723C11.2967 17.1815 11.3692 17.4543 11.3682 17.7445C11.3651 18.6289 10.8362 20.5427 10.4361 21.1172C10.129 21.5581 9.27545 21.7467 4.96395 22.3272C2.35576 22.6783 2.17855 22.681 1.79564 22.3743C1.53747 22.1678 1.49302 22.0421 1.49302 21.5197C1.49302 20.7623 1.86708 19.2734 2.25113 18.502C2.6044 17.7923 2.91013 17.6445 4.51616 17.4068C6.0287 17.1829 8.8728 16.926 10.0697 16.905C10.7865 16.8925 11.0517 16.9322 11.1895 17.0723ZM20.9201 20.9203C20.9865 20.9878 20.2933 24.9121 20.1978 25.0092C20.1042 25.1046 10.3363 24.6301 10.3363 24.5303C10.3363 24.1879 11.0807 22.0455 11.2496 21.9021C11.4212 21.7562 11.8696 21.6945 13.2295 21.6295C14.1964 21.5832 16.0988 21.3966 17.4569 21.2148C19.9035 20.8873 20.8118 20.81 20.9201 20.9203ZM10.2197 22.6459C10.2173 23.1944 9.91458 24.4212 9.65273 24.9437C9.37606 25.4955 8.87211 25.9403 8.30901 26.1295C7.83813 26.2876 6.41184 26.2322 3.56028 25.9449C1.67494 25.7549 1.49302 25.6565 1.49302 24.8271C1.49302 24.0709 1.79369 23.4782 2.2772 23.2814C2.94562 23.0092 6.59249 22.5112 9.1304 22.3456C9.44623 22.325 9.82098 22.2986 9.96305 22.287C10.1825 22.2691 10.2212 22.3231 10.2197 22.6459ZM14.4134 25.5906C15.1789 25.6982 16.5529 25.7693 17.8999 25.7706L20.1233 25.7729L20.0616 26.036C20.0277 26.1807 19.9392 26.6214 19.8648 27.0154L19.7294 27.732L15.119 27.7969C11.9252 27.842 10.1204 27.917 9.24525 28.0411C7.64542 28.2679 6.69965 28.2698 5.68497 28.0481C5.2428 27.9516 4.32861 27.7976 3.65342 27.7062C2.97823 27.6147 2.27123 27.4584 2.08242 27.359C1.76613 27.1925 1.5099 26.7689 1.64336 26.6331C1.67448 26.6014 3.39697 26.6186 5.47112 26.6711C9.11685 26.7634 9.24375 26.7744 9.27936 27.0004C9.37054 27.5797 9.44393 27.5553 9.79755 26.8278C10.2211 25.9566 10.5341 25.6892 11.3872 25.4698C12.0493 25.2995 12.4632 25.316 14.4134 25.5906ZM8.57477 28.7559C13.0688 28.795 14.8865 28.9025 16.5676 29.229C17.3734 29.3856 18.2261 29.5144 18.4626 29.5153C19.2535 29.5182 19.4074 29.6082 19.33 30.0228C19.2924 30.225 19.2541 30.401 19.2452 30.414C19.1775 30.5121 11.387 30.1784 10.3363 30.0324C7.74993 29.6729 4.82085 28.9747 4.63836 28.674C4.58059 28.5788 4.68338 28.5681 5.00679 28.6354C5.25348 28.6869 6.85905 28.741 8.57477 28.7559ZM31.8128 29.9709C31.8128 30.0959 31.1506 30.6827 31.0095 30.6827C30.7963 30.6827 30.5495 30.5329 30.5495 30.4035C30.5495 30.3281 30.7692 30.1822 31.0376 30.0793C31.623 29.8552 31.8128 29.8287 31.8128 29.9709ZM26.9892 30.2026C26.9892 30.4054 26.7822 30.5658 26.5204 30.5658C26.3993 30.5658 26.377 30.1758 26.4916 30.0592C26.6573 29.8906 26.9892 29.9862 26.9892 30.2026ZM55.9883 32.1439C55.9883 32.4555 55.9436 32.5011 55.5866 32.553C55.2198 32.6063 55.1759 32.6553 55.0809 33.1144C54.9879 33.5645 54.9458 33.6135 54.6797 33.582C54.2055 33.5257 54.2076 32.6487 54.6834 32.0329C54.8907 31.7648 54.9947 31.7277 55.4556 31.7581C55.9633 31.7916 55.9883 31.8097 55.9883 32.1439Z" fill="white"/>
</svg>
