<svg width="232" height="135" viewBox="0 0 232 135" fill="none" xmlns="http://www.w3.org/2000/svg">
<path fill-rule="evenodd" clip-rule="evenodd" d="M100.781 0.416935C98.7732 1.30718 97.158 3.63816 94.9061 8.89425C93.0474 13.2327 92.8586 13.4866 90.4174 14.9278C88.1719 16.2539 87.6688 16.8424 86.1799 19.8864C85.0958 22.1036 83.2637 24.6867 81.0642 27.1003C77.6394 30.8581 77.0399 32.044 78.3147 32.5383C79.5013 32.9983 82.1313 30.8984 85.7187 26.6264C87.6357 24.3432 89.9667 22.0823 90.8993 21.6019C95.8515 19.049 106.658 17.3985 118.438 17.3957L126.852 17.3934L130.361 19.0314C132.29 19.9323 134.233 21.0013 134.677 21.4074C135.327 22.002 136.404 22.1199 140.211 22.0145C147.578 21.8094 148.071 21.8855 150.621 23.6191C151.902 24.4903 153.677 25.4451 154.564 25.7412C155.452 26.0369 156.749 26.8919 157.448 27.6401C158.148 28.3888 159.443 29.2266 160.327 29.5018C161.212 29.777 165.656 31.8458 170.204 34.0988C174.752 36.3523 179.404 38.6271 180.541 39.1548C181.678 39.6826 183.591 40.8355 184.792 41.7165C185.993 42.5975 188.68 44.0127 190.764 44.8607C195.476 46.779 197.601 47.8842 205.118 52.3271C215.868 58.68 215.834 58.6368 213.836 63.412C212.041 67.7022 212.027 68.2364 213.581 73.1398C214.359 75.5914 214.995 78.3337 214.995 79.2336C214.995 80.6173 214.781 80.9598 213.605 81.4518C212.663 81.8459 212.287 82.2753 212.438 82.7844C213.214 85.405 214.1 90.3163 213.864 90.7001C213.711 90.9522 212.853 91.2966 211.96 91.466C209.991 91.8392 209.346 93.1796 209.786 95.9831C210.448 100.206 211.727 101.924 214.827 102.758C217.059 103.359 217.879 104.198 217.672 105.673C217.524 106.731 217.457 106.742 212.009 106.619C206.511 106.495 198.937 105.936 178.933 104.182C166.124 103.059 151.137 102.547 148.613 103.147L146.775 103.584L149.302 103.885C150.692 104.051 157.72 104.505 164.921 104.894C172.122 105.282 188.862 106.223 202.12 106.984C215.378 107.745 226.692 108.368 227.263 108.368C228.232 108.368 228.282 108.225 228.023 106.163C227.773 104.165 227.121 103.091 225.912 102.684C225.671 102.603 224.693 99.2011 223.738 95.1244C222.497 89.8275 221.822 87.7342 221.37 87.7876C221.022 87.8284 220.087 88.0066 219.293 88.184C217.898 88.4945 217.838 88.4434 217.562 86.7168C217.405 85.7327 217.079 82.5259 216.838 79.5901C216.597 76.6543 216.265 72.8868 216.099 71.2182C215.831 68.5001 215.929 67.9245 217.048 65.6933C218.23 63.3373 218.28 62.9799 217.972 59.0573L217.648 54.9115L215.241 53.3561C213.918 52.5007 207.481 49.0371 200.937 45.6595C186.45 38.182 186.513 38.2233 186.513 36.1712C186.513 34.9528 186.137 34.2404 184.878 33.0698C182.449 30.8107 181.437 30.5039 178.083 31.0103C176.484 31.2517 174.384 31.2995 173.418 31.1161C171.411 30.736 162.636 26.2374 158.037 23.2315C156.334 22.1185 152.934 20.1147 150.481 18.7784C144.683 15.6203 143.589 14.6396 141.747 10.9481C139.129 5.70087 138.558 5.44837 127.989 4.86075C118.858 4.35297 116.861 4.02249 110.024 1.88552C103.372 -0.193896 102.477 -0.335924 100.781 0.416935ZM109.317 4.04987C110.755 4.592 112.475 5.6837 113.273 6.56095L114.686 8.11262L124.988 7.99519C137.002 7.85872 137.503 7.99147 139.422 11.817C140.85 14.6642 143.031 17.2133 144.855 18.1662C146.064 18.7979 146.143 18.9492 145.463 19.3331C144.298 19.9922 140.446 19.0379 134.014 16.4966C123.549 12.3624 122.382 12.0482 117.834 12.1322C115.56 12.174 110.805 12.6572 107.268 13.2053C103.731 13.754 99.5445 14.3225 97.9652 14.4692C95.444 14.7031 95.094 14.6372 95.094 13.9294C95.094 12.801 98.1365 5.82666 99.1118 4.72057C101.185 2.3687 104.311 2.16308 109.317 4.04987ZM86.7142 11.3352C82.0633 13.9484 79.166 15.7447 65.0038 24.7967C61.6273 26.955 50.0474 33.1603 38.3592 39.0754C13.3481 51.7329 9.60541 54.0509 6.78613 58.6321C5.83473 60.1778 5.74009 60.9019 5.71574 66.8259C5.69599 71.6108 5.42495 74.6088 4.68901 78.1977C3.62689 83.3744 2.41686 102.913 2.97318 105.908C3.13167 106.761 3.89472 108.189 4.66971 109.08C5.93901 110.541 6.02537 110.83 5.54485 112.002C4.97245 113.399 5.30045 115.626 6.64417 119.464C7.37736 121.558 7.32683 122.155 6.46225 121.615C6.19259 121.447 5.97208 120.721 5.97208 120.001C5.97208 118.509 5.3689 117.865 3.53226 117.399C2.53722 117.147 1.99192 117.314 1.12321 118.139C0.50533 118.725 0 119.572 0 120.021C0 121.222 2.22805 122.617 4.93983 123.115C7.33556 123.555 9.11799 123.538 19.8861 122.97C24.2917 122.737 28.2549 122.901 35.7351 123.623C41.2212 124.153 50.154 124.802 55.5863 125.067C61.0186 125.331 68.1507 125.942 71.4353 126.425C80.4881 127.756 85.8676 127.911 99.7595 127.245C109.112 126.797 116.373 126.747 127.278 127.056C142.77 127.495 143.393 127.447 147.802 125.498C150.123 124.472 150.264 124.462 151.837 125.22C153.275 125.913 153.648 125.929 155.004 125.356C156.391 124.771 156.626 124.79 157.401 125.554C158.157 126.3 158.741 126.363 162.254 126.078C165.56 125.809 166.447 125.564 167.406 124.653L168.564 123.553L169.361 124.955C170.055 126.178 170.366 126.333 171.788 126.17C179.148 125.326 195.765 123.687 196.964 123.686C198.708 123.685 198.885 124.308 197.416 125.281C192.075 128.817 175.751 130.37 131.17 131.582C121.577 131.844 113.578 132.21 113.395 132.397C113.212 132.583 116.72 132.794 121.191 132.865C125.661 132.936 137.794 133.214 148.154 133.484C158.513 133.753 178.772 134.116 193.174 134.29C207.576 134.465 219.6 134.762 219.893 134.95C220.187 135.139 222.047 134.774 224.028 134.141C226.008 133.507 228.21 132.872 228.921 132.73C232.577 131.998 233.133 121.24 229.746 116.773C228.91 115.67 228.891 115.667 226.692 116.425C225.474 116.844 224.412 117.187 224.331 117.187C224.249 117.187 224.183 116.038 224.183 114.634V112.081H222.563C221.672 112.081 217.485 112.902 213.26 113.906C203.521 116.218 199.147 116.515 188.58 115.583C184.032 115.182 174.833 114.741 168.137 114.604C161.183 114.462 155.21 114.129 154.206 113.828C152.884 113.432 151.798 113.438 149.811 113.853C147.578 114.319 146.836 114.287 144.982 113.649C142.863 112.919 142.747 112.927 141.468 113.883C140.231 114.806 140.032 114.827 138.407 114.191C135.988 113.246 130.228 112.368 127.481 112.525C124.621 112.688 120.015 112.694 117.648 112.537C116.397 112.455 115.426 112.727 114.437 113.439C112.248 115.014 109.992 115.215 108.664 113.955L107.57 112.916L101.977 117.676L96.3848 122.436L88.5991 121.957C84.3166 121.694 80.7095 121.374 80.5827 121.246C80.4559 121.118 80.5878 120.068 80.8753 118.913C81.3549 116.989 81.5548 116.773 83.2642 116.335C84.9446 115.904 85.28 115.972 86.6522 117.03C88.6887 118.6 93.5357 120.102 95.4224 119.748C97.769 119.308 97.5232 118.795 95.0508 118.972C91.4854 119.227 92.1612 117.897 96.2888 116.537C99.3415 115.532 100.278 114.822 99.8918 113.805C99.4435 112.625 98.0331 112.435 93.7525 112.977C89.0525 113.573 87.9445 113.33 87.3385 111.574C86.9072 110.324 86.7013 110.224 84.5519 110.224C81.9407 110.224 81.9949 110.342 82.7161 106.248C83.5793 101.347 82.593 101.799 91.8001 102.079C112.142 102.696 128.385 102.833 127.94 102.382C126.777 101.205 121.859 100.477 115.096 100.482C108.933 100.486 85.9852 99.2661 84.72 98.8665C84.1995 98.7022 86.6076 82.9585 87.2632 82.24C88.0538 81.3725 99.618 80.9116 113.47 81.1961C125.748 81.4481 128.344 81.3841 130.604 80.7737C132.296 80.317 135.244 80.0543 138.685 80.0543C141.664 80.0543 147.343 79.7405 151.305 79.3571C161.826 78.3388 184.941 78.7574 192.674 80.1063C197.927 81.023 203.496 81.1511 204.266 80.3736C206.18 78.4399 194.09 77.3557 166.3 76.97C153.193 76.7876 143.982 76.8827 138.277 77.2582C130.749 77.7539 87.7566 78.7138 87.3587 78.3949C87.2728 78.3262 87.4566 75.1472 87.7662 71.3305L88.329 64.3905L92.056 64.0943C94.1058 63.9314 102.915 63.8181 111.632 63.8423C120.349 63.8669 130.841 63.6343 134.946 63.3261C140.568 62.9038 144.198 62.8912 149.647 63.2755C153.626 63.5564 161.637 63.9133 167.448 64.0693C175.457 64.2837 178.792 64.5566 181.23 65.1967C185.237 66.2494 200.504 66.9145 201.026 66.0595C201.628 65.0769 199.868 64.4034 195.839 64.073C192.078 63.7648 189.39 63.0166 188.072 61.9114C187.609 61.5234 187.625 61.0513 188.152 59.5424C189.587 55.4341 188.603 53.2336 184.905 52.2765C181.374 51.3626 165.226 49.7997 160.948 49.958C157.17 50.0982 156.555 50.243 155.631 51.2136L154.585 52.3104L156.329 52.0008C157.792 51.7408 158.206 51.8569 158.9 52.723C159.71 53.7335 159.768 53.739 161.645 52.9801C164.705 51.7427 167.92 52.0179 175.258 54.1447C179.172 55.2791 181.104 56.9032 180.906 58.8907C180.744 60.525 179.665 61.0578 179.308 59.6802C179.038 58.6345 178.476 58.4117 178.014 59.1673C177.497 60.0121 175.579 59.6496 174.154 58.4377C172.665 57.1724 172.138 57.2559 170.791 58.9705C169.122 61.095 166.518 61.6988 159.677 61.548C156.46 61.4769 156.514 61.2026 159.871 60.5593C162.385 60.0775 164.003 59.0499 164.003 57.935C164.003 57.1812 164.053 57.1789 158.031 58.1866C153.529 58.9399 153.217 59.0615 153.351 60.0088C153.494 61.0202 153.464 61.0239 145.311 61.0304C140.811 61.0337 126.917 61.2472 114.437 61.5043C101.956 61.7615 91.6733 61.8998 91.586 61.8121C91.4992 61.7239 94.3718 60.538 97.9697 59.1766C101.568 57.8157 104.77 56.4998 105.086 56.2534C105.402 56.0064 105.66 55.325 105.66 54.7393C105.66 53.9029 105.211 53.5009 103.567 52.8669C100.923 51.8467 101.617 51.2934 105.554 51.2836C108.366 51.2767 108.427 51.3027 108.157 52.3916C107.917 53.358 108.079 53.5506 109.37 53.8374C110.606 54.1117 110.995 53.9864 111.657 53.1003C112.232 52.3299 113.139 51.9372 114.914 51.6902C123.308 50.5215 126.356 50.016 126.622 49.7468C127.239 49.123 125.733 48.0633 123.815 47.7728C122.724 47.6075 119.279 47.7955 116.158 48.191C112.088 48.7067 107.756 48.8589 100.836 48.7289C94.3171 48.6064 89.6998 48.7521 86.5952 49.1778C82.2802 49.77 58.3427 50.5999 58.3427 50.1581C58.3427 50.0457 62.2718 47.5147 67.0739 44.5325C75.6328 39.2179 76.9273 38.2804 75.7063 38.2804C74.8302 38.2804 56.342 44.5998 54.6845 45.4659C53.9174 45.867 53.2894 46.5131 53.2894 46.902C53.2894 48.456 51.8896 50.2565 50.1278 50.9685C49.1277 51.3728 46.019 51.9209 43.2195 52.1864C40.42 52.4519 35.838 52.8864 33.0376 53.1523C28.1823 53.6128 24.3243 54.5457 23.0881 55.558C22.6484 55.9182 22.7807 56.3411 23.6655 57.4035C24.2967 58.1615 24.6891 58.9849 24.5375 59.2332C23.9871 60.1328 24.8241 61.8469 26.0645 62.3598C26.7627 62.6485 28.9504 63.0894 30.9262 63.3396C32.9021 63.5898 34.7111 63.9142 34.9459 64.0609C37.4799 65.6432 28.3968 67.2366 18.3191 66.9776C10.1962 66.7688 8.72843 66.2188 8.72843 63.3828C8.72843 59.5656 14.271 55.1849 27.6246 48.4486C45.3833 39.4909 70.9079 24.9958 82.1552 17.482C88.7966 13.0457 93.7291 8.57445 91.9825 8.57445C91.7873 8.57445 89.4163 9.81653 86.7142 11.3352ZM134.953 49.3231C134.813 49.8643 134.242 50.3405 133.621 50.4352C132.539 50.6004 132.538 50.6032 133.503 51.1518C134.131 51.5092 137.573 51.7501 143.297 51.8378C151.519 51.9636 152.167 51.9126 152.765 51.0924C153.118 50.6078 153.317 50.0634 153.206 49.8824C153.095 49.7013 150.466 49.4131 147.363 49.2414C144.261 49.0701 140.254 48.8055 138.46 48.6533C135.445 48.3971 135.18 48.4477 134.953 49.3231ZM89.121 52.3424C89.1223 52.8246 84.5353 54.9797 83.4943 54.9853C83.0519 54.9881 82.6904 54.7811 82.6904 54.5258C82.6904 53.8681 80.9107 53.9479 76.2153 54.8159L72.135 55.5701L71.247 54.4677L70.359 53.3654L69.0345 54.6418C67.7303 55.8987 65.1311 56.413 64.5863 55.5223C64.1154 54.7527 65.6203 53.3918 67.825 52.593C69.7131 51.9093 71.5258 51.7993 79.5886 51.8787C84.8307 51.9307 89.12 52.1391 89.121 52.3424ZM119.526 53.001C119.609 53.4387 120.377 54.2733 121.232 54.8553L122.787 55.9141L119.851 55.8277C117.868 55.7692 116.231 56.0236 114.807 56.6112C112.702 57.4801 112.698 57.4801 111.262 56.4469C109.896 55.4643 109.766 55.4513 108.661 56.1828C107.431 56.9974 107.329 57.2564 107.776 58.433C108.147 59.4091 110.017 59.3581 114.848 58.239C119.779 57.0967 120.67 57.0967 122.887 58.239C125.185 59.4226 125.482 59.4077 127.525 58.0069C128.642 57.2411 129.851 56.8465 131.081 56.8465C132.893 56.8465 136.439 54.9616 136.439 53.9985C136.439 53.4225 136.099 53.4972 134.797 54.3591C133.245 55.3868 128.893 54.9672 124.745 53.39C121.022 51.9738 119.306 51.8462 119.526 53.001ZM97.9707 53.3654C98.0308 53.6207 97.3565 53.9883 96.4721 54.1828C90.4412 55.507 89.8146 55.7186 89.6704 56.4817C89.4228 57.793 91.4965 57.9368 95.5037 56.8874C99.5234 55.8347 102.27 55.5896 101.066 56.3912C99.2684 57.5878 87.1332 60.8072 86.3242 60.3017C85.2194 59.612 89.1609 54.4148 91.6265 53.3111C93.1958 52.6088 97.8012 52.6483 97.9707 53.3654ZM62.3646 54.1777C62.2608 54.497 61.7155 54.8261 61.1532 54.9096C60.579 54.9946 59.945 55.5543 59.7075 56.186C59.2674 57.3553 58.9142 57.5033 57.6913 57.029C55.7705 56.2845 58.1718 53.5975 60.7581 53.5975C61.9893 53.5975 62.4942 53.7799 62.3646 54.1777ZM45.4972 55.2011C45.1921 55.5724 44.0446 56.4074 42.9476 57.0573C41.8505 57.7071 40.5302 58.7811 40.0134 59.4449L39.074 60.6517L37.5139 59.6774C36.212 58.8642 35.2215 58.7032 31.5289 58.7032C26.8941 58.7032 26.2478 58.3629 28.3013 57.0039C29.3441 56.3132 29.8287 56.2812 32.0655 56.7556C34.2136 57.2109 34.803 57.1868 35.6759 56.6089C36.8689 55.8189 37.8621 55.6931 37.4385 56.3856C37.281 56.6428 37.5148 56.9937 37.9581 57.1654C38.4451 57.3543 38.8424 57.2383 38.9633 56.8721C39.4962 55.2573 40.901 54.5258 43.4685 54.5258C45.6768 54.5258 45.9713 54.6237 45.4972 55.2011ZM53.2218 56.8424C52.9586 57.6059 52.1267 58.7547 51.3733 59.3952C49.0285 61.3883 48.6201 60.8448 49.9064 57.4421C50.5822 55.6537 50.8105 55.4541 52.1795 55.4541C53.6693 55.4541 53.6909 55.4829 53.2218 56.8424ZM85.003 56.7607C83.9 58.7027 83.9147 58.6981 81.1854 57.8449C77.9224 56.8247 78.3786 56.1809 82.4465 56.0644C85.1417 55.9874 85.4017 56.0584 85.003 56.7607ZM75.0177 56.6753C75.1771 56.8368 75.1059 57.3497 74.8592 57.8157C74.375 58.7301 71.7959 59.6245 69.6327 59.6287L68.2889 59.6315L69.403 58.4205C70.0153 57.754 70.93 57.0364 71.4353 56.8252C72.5503 56.3592 74.6189 56.2728 75.0177 56.6753ZM147.021 57.2801C146.299 58.6442 146.374 58.7032 148.843 58.7032C151.543 58.7032 152.01 57.708 149.693 56.892C147.757 56.2102 147.574 56.2366 147.021 57.2801ZM166.644 58.2706C165.542 58.8586 164.921 59.5196 164.921 60.1068C164.921 61.9411 167.739 60.5045 168.358 58.355C168.715 57.1148 168.803 57.119 166.644 58.2706ZM45.8546 59.0513C45.7407 60.0529 45.4384 60.3593 44.4488 60.4744C43.4005 60.5964 43.2384 60.479 43.4864 59.7781C44.2968 57.4875 46.0958 56.9357 45.8546 59.0513ZM83.5233 60.6758L83.3795 62.1843L74.2045 62.3106C67.5337 62.4025 65.1674 62.2976 65.5349 61.9263C66.2617 61.192 69.199 60.5848 72.1244 60.564C73.5141 60.5537 75.478 60.2446 76.4886 59.877C77.4993 59.5089 79.528 59.1989 80.9966 59.1877L83.6675 59.1673L83.5233 60.6758ZM59.0083 60.9784L59.6979 62.325L56.7031 62.8522C53.8507 63.354 50.533 63.1419 50.533 62.4577C50.533 61.586 51.8643 61.0225 53.9555 61.0091C55.2625 61.0007 56.6645 60.6967 57.1671 60.3128C58.3059 59.4426 58.2035 59.4054 59.0083 60.9784ZM177.343 61.2672C178.315 61.8747 176.782 62.402 174.021 62.4094C171.428 62.4164 170.544 61.9708 171.159 60.9654C171.499 60.4094 176.348 60.6461 177.343 61.2672ZM45.8532 64.1927C45.9327 65.0027 45.8909 65.6655 45.7613 65.6655C45.6313 65.6655 44.4718 65.4371 43.1846 65.1582C41.2478 64.7386 40.9368 64.538 41.382 63.9959C41.9387 63.3182 44.442 62.4229 45.25 62.6123C45.5027 62.6717 45.7742 63.3828 45.8532 64.1927ZM85.7605 65.3174C85.6255 65.892 85.2598 69.1815 84.9474 72.6278C84.6355 76.0741 84.2542 79.0443 84.1003 79.2281C83.77 79.6226 79.4558 80.1151 62.7069 81.6691C55.8849 82.3022 49.2917 82.9525 48.0551 83.1144L45.8068 83.4087L46.1215 81.0132C46.2942 79.696 46.9557 76.5912 47.5915 74.1145C49.7245 65.801 49.3184 66.0062 64.5146 65.555C71.1004 65.3591 77.6256 65.0166 79.0153 64.7938C80.4049 64.571 82.5462 64.3626 83.7736 64.331C85.8666 64.2767 85.9902 64.338 85.7605 65.3174ZM44.758 67.7871C45.1866 68.2207 45.477 69.304 45.4728 70.456C45.4604 73.9678 43.3449 81.5665 41.7444 83.8478C40.516 85.5981 37.1018 86.3473 19.8558 88.6523C9.42303 90.0461 8.71419 90.0568 7.18258 88.8393C6.14987 88.0192 5.97208 87.5202 5.97208 85.4459C5.97208 82.4386 7.46832 76.5267 9.00453 73.4637C10.4176 70.6459 11.6405 70.0592 18.0646 69.1151C24.1148 68.2262 35.4912 67.206 40.279 67.1229C43.146 67.0733 44.2067 67.2306 44.758 67.7871ZM83.6804 83.0657C83.9459 83.334 81.173 98.9157 80.7913 99.3014C80.4169 99.6801 41.3452 97.7961 41.3452 97.3997C41.3452 96.0402 44.323 87.5337 44.9983 86.9641C45.6846 86.3849 47.4785 86.1398 52.9182 85.8817C56.7858 85.6979 64.3951 84.9571 69.8274 84.2354C79.6139 82.9348 83.2472 82.628 83.6804 83.0657ZM40.8789 89.9176C40.8693 92.0954 39.6583 96.9667 38.6109 99.041C37.5042 101.232 35.4884 102.998 33.236 103.749C31.3525 104.377 25.6473 104.157 14.2411 103.016C6.69976 102.262 5.97208 101.871 5.97208 98.5782C5.97208 95.5756 7.17477 93.2223 9.10881 92.4407C11.7825 91.3602 26.37 89.3829 36.5216 88.7251C37.7849 88.6435 39.2839 88.5386 39.8522 88.4926C40.7301 88.4216 40.8849 88.636 40.8789 89.9176ZM57.6536 101.61C60.7154 102.037 66.2116 102.319 71.5998 102.324L80.4931 102.334L80.2464 103.378C80.1109 103.953 79.7567 105.703 79.459 107.267L78.9174 110.112L60.4761 110.37C47.7009 110.549 40.4815 110.847 36.981 111.34C30.5817 112.24 26.7986 112.248 22.7399 111.368C20.9712 110.984 17.3145 110.373 14.6137 110.01C11.9129 109.646 9.08492 109.026 8.32968 108.631C7.06452 107.97 6.03962 106.288 6.57343 105.749C6.69792 105.623 13.5879 105.691 21.8845 105.9C36.4674 106.266 36.975 106.31 37.1174 107.207C37.4822 109.508 37.7757 109.411 39.1902 106.522C40.8844 103.063 42.1363 102.001 45.5486 101.13C48.197 100.454 49.8527 100.519 57.6536 101.61ZM34.2991 114.178C52.275 114.333 59.5458 114.76 66.2704 116.056C69.4935 116.678 72.9045 117.189 73.8503 117.193C77.0142 117.205 77.6297 117.562 77.3201 119.208C77.1694 120.011 77.0165 120.71 76.9806 120.762C76.71 121.151 45.5482 119.826 41.3452 119.246C30.9997 117.819 19.2834 115.046 18.5534 113.853C18.3224 113.475 18.7335 113.432 20.0272 113.699C21.0139 113.904 27.4362 114.119 34.2991 114.178ZM127.251 119.002C127.251 119.499 124.602 121.828 124.038 121.828C123.185 121.828 122.198 121.234 122.198 120.72C122.198 120.42 123.077 119.841 124.15 119.433C126.492 118.543 127.251 118.438 127.251 119.002ZM107.957 119.922C107.957 120.727 107.129 121.364 106.082 121.364C105.597 121.364 105.508 119.816 105.966 119.353C106.629 118.683 107.957 119.063 107.957 119.922ZM223.953 127.63C223.953 128.868 223.774 129.049 222.346 129.255C220.879 129.466 220.703 129.661 220.324 131.484C219.951 133.271 219.783 133.465 218.719 133.34C216.822 133.117 216.83 129.634 218.734 127.19C219.563 126.125 219.979 125.978 221.823 126.098C223.853 126.231 223.953 126.303 223.953 127.63Z" fill="white"/>
</svg>
