<svg width="22" height="20" viewBox="0 0 22 20" fill="none" xmlns="http://www.w3.org/2000/svg">
<path d="M15.2505 3.18434C14.4169 3.1842 13.6166 3.51124 13.0218 4.09508C12.4269 4.67892 12.0851 5.4729 12.0699 6.30616L12.0392 8.03319C12.0374 8.12592 12.016 8.21722 11.9764 8.3011C11.9369 8.38498 11.88 8.45956 11.8096 8.51992C11.7391 8.58029 11.6567 8.62508 11.5678 8.65137C11.4788 8.67767 11.3853 8.68485 11.2934 8.67247L9.58134 8.44001C7.32858 8.13298 5.17015 7.09566 3.09946 5.37082C2.44359 9.00033 3.72461 11.5147 6.80981 13.4544L8.72586 14.6584C8.8169 14.7156 8.89253 14.7943 8.94614 14.8874C8.99975 14.9806 9.02971 15.0855 9.03339 15.193C9.03707 15.3004 9.01436 15.4071 8.96725 15.5037C8.92014 15.6004 8.85006 15.684 8.76315 15.7473L7.0171 17.0225C8.05574 17.0872 9.04173 17.0412 9.85991 16.8789C15.0344 15.846 18.475 11.9533 18.475 5.53201C18.475 5.00787 17.3651 3.18434 15.2505 3.18434ZM9.87636 6.26559C9.89551 5.20859 10.2261 4.18072 10.8268 3.31068C11.4274 2.44064 12.2715 1.76709 13.2532 1.37437C14.2349 0.981645 15.3107 0.887196 16.3459 1.10285C17.3811 1.3185 18.3296 1.83467 19.0727 2.58673C19.8525 2.58125 20.5161 2.77862 22 1.87947C21.6326 3.67778 21.4516 4.45851 20.6685 5.53201C20.6685 13.9117 15.517 17.9864 10.2898 19.0292C6.70562 19.7441 1.49379 18.5698 0 17.0105C0.761155 16.9513 3.85403 16.619 5.64176 15.3109C4.12932 14.3141 -1.89082 10.7723 2.06521 1.25006C3.92203 3.4179 5.80518 4.89383 7.71355 5.67675C8.9836 6.1976 9.29508 6.18664 9.87746 6.26668L9.87636 6.26559Z" fill="#F8F8F8"/>
</svg>
