<svg width="22" height="23" viewBox="0 0 22 23" fill="none" xmlns="http://www.w3.org/2000/svg">
<path fill-rule="evenodd" clip-rule="evenodd" d="M16.0406 13.4179C15.7661 13.2813 14.4204 12.6233 14.1699 12.5317C13.9193 12.4409 13.737 12.396 13.5537 12.6691C13.3713 12.9404 12.8472 13.5544 12.6878 13.7359C12.5276 13.9183 12.3682 13.9403 12.0947 13.8046C11.8211 13.6672 10.9387 13.3803 9.8933 12.4528C9.07999 11.7307 8.5301 10.8389 8.37076 10.5658C8.21141 10.2936 8.35326 10.1461 8.4905 10.0104C8.61392 9.88856 8.76406 9.69243 8.9013 9.53389C9.03854 9.37442 9.08367 9.26078 9.17486 9.0784C9.26697 8.89694 9.22091 8.73839 9.15183 8.60184C9.08367 8.46528 8.53655 7.12449 8.30812 6.57919C8.08614 6.04855 7.86048 6.12095 7.69284 6.11179C7.53258 6.10446 7.3502 6.10262 7.16783 6.10262C6.98546 6.10262 6.68887 6.17044 6.43833 6.44355C6.18688 6.71574 5.48041 7.37468 5.48041 8.71548C5.48041 10.0554 6.46044 11.3503 6.59768 11.5327C6.73492 11.7142 8.52734 14.4654 11.2731 15.6449C11.927 15.9253 12.4364 16.0931 12.8334 16.2177C13.4892 16.4257 14.086 16.3964 14.5576 16.3258C15.0827 16.2479 16.1769 15.6669 16.4053 15.0309C16.6328 14.3948 16.6328 13.8495 16.5647 13.7359C16.4965 13.6223 16.3141 13.5544 16.0397 13.4179H16.0406ZM11.0465 20.2025H11.0428C9.41197 20.2028 7.81108 19.7666 6.40794 18.9396L6.07635 18.7435L2.62968 19.6435L3.54983 16.3002L3.33338 15.9574C2.42164 14.5134 1.93914 12.8421 1.94163 11.1368C1.94347 6.14203 6.02753 2.07841 11.0502 2.07841C13.4818 2.07841 15.7679 3.02237 17.4867 4.73434C18.3344 5.57435 19.0063 6.57329 19.4636 7.67336C19.9208 8.77343 20.1542 9.95278 20.1504 11.1432C20.1486 16.138 16.0645 20.2025 11.0465 20.2025ZM18.7946 3.43387C17.7797 2.41743 16.5722 1.6115 15.2421 1.06278C13.9119 0.514052 12.4855 0.233447 11.0456 0.23722C5.00882 0.23722 0.09395 5.12658 0.0921078 11.1359C0.0893105 13.0483 0.593519 14.9277 1.55386 16.5843L0 22.2325L5.80648 20.7166C7.41272 21.5874 9.21271 22.0437 11.0419 22.0437H11.0465C17.0832 22.0437 21.9981 17.1543 21.9999 11.1441C22.0044 9.71193 21.7234 8.29308 21.1732 6.96963C20.623 5.64619 19.8146 4.44443 18.7946 3.43387Z" fill="#F8F8F8"/>
</svg>
